Coordinates
version=1
nRows=12
nColumns=24
inDegrees=yes

Units are S.I. units (second, meters, Newtons, ...)
Angles are in degrees.

endheader
time	pelvis_tilt	pelvis_list	pelvis_rotation	pelvis_tx	pelvis_ty	pelvis_tz	hip_flexion_r	hip_adduction_r	hip_rotation_r	knee_angle_r	ankle_angle_r	subtalar_angle_r	mtp_angle_r	hip_flexion_l	hip_adduction_l	hip_rotation_l	knee_angle_l	ankle_angle_l	subtalar_angle_l	mtp_angle_l	lumbar_extension	lumbar_bending	lumbar_rotation
      1.13000000	      6.72636430	     -7.73197406	     -1.11682835	     -0.63376581	      0.89715748	      0.00595760	    -26.73199751	      9.14640779	     -2.48092984	    -12.64299069	     14.16689182	      1.20323865	     46.45889717	     15.45376897	     -6.24141711	     -4.68816859	     -5.01868180	     10.35222900	      0.86462767	     31.94161509	    -17.49044421	      5.44072374	      1.99396118
      1.13500000	      6.55469909	     -7.55564124	     -1.08984000	     -0.62568140	      0.89616508	      0.00528216	    -26.34306167	      8.84218590	     -2.49657569	    -13.93192478	     13.80621420	      1.39248958	     47.31360185	     15.74685330	     -5.95047015	     -4.35461961	     -5.83733532	     10.09678174	      0.35392143	     32.08147877	    -17.25066378	      5.26222752	      1.76391338
      1.14000000	      6.39453400	     -7.35287272	     -1.05134440	     -0.61766395	      0.89524556	      0.00458516	    -25.88002622	      8.52080967	     -2.51461951	    -15.34737791	     13.31089995	      1.35745717	     49.19928456	     16.04180872	     -5.62729876	     -3.99889723	     -6.74322186	      9.72548300	     -0.15438036	     32.52939873	    -17.03111620	      5.05400038	      1.54541695
      1.14500000	      6.19115521	     -7.12810571	     -1.01788414	     -0.60966465	      0.89432290	      0.00387195	    -25.30258776	      8.17209682	     -2.52799658	    -16.87201228	     12.76012987	      1.53932291	     50.34996231	     16.43147638	     -5.27604002	     -3.66758374	     -7.81524717	      9.43642462	     -0.72159877	     32.78150497	    -16.76550029	      4.82272693	      1.28970061
      1.15000000	      5.97010719	     -6.86378854	     -0.88085083	     -0.60173628	      0.89339164	      0.00304993	    -24.64419696	      7.84130703	     -2.62124177	    -18.46587384	     12.08168035	      1.40379280	     52.23768726	     16.90179091	     -4.85504125	     -3.22034694	     -9.01212099	      9.01114045	     -1.29385957	     33.20908065	    -16.47893146	      4.56442248	      0.94207737
      1.15500000	      5.74364376	     -6.57115830	     -0.76778659	     -0.59387637	      0.89251280	      0.00219246	    -23.86459137	      7.46058909	     -2.74231047	    -20.25521542	     11.37298767	      1.30885407	     53.99199240	     17.35892525	     -4.40212088	     -2.76744718	    -10.21795366	      8.62045895	     -1.84529770	     33.57892955	    -16.19667664	      4.27561245	      0.63709364
      1.16000000	      5.49747990	     -6.25291238	     -0.63075490	     -0.58607546	      0.89164708	      0.00130018	    -22.99193728	      7.06420394	     -2.87498355	    -22.14397932	     10.54573144	      1.19588071	     55.64894480	     17.86930681	     -3.91183756	     -2.31476359	    -11.51563480	      8.26409064	     -2.40945182	     33.87284333	    -15.89839599	      3.96048241	      0.28976033
      1.16500000	      5.23648562	     -5.89421238	     -0.57959920	     -0.57834496	      0.89081721	      0.00046106	    -21.99705177	      6.58324260	     -2.94075190	    -24.21889353	      9.77174263	      1.26908484	     56.55458128	     18.36942964	     -3.39626345	     -1.95894132	    -12.82186698	      8.00039458	     -3.01705862	     33.94831288	    -15.59732572	      3.58545119	      0.04311894
      1.17000000	      5.01167039	     -5.51151276	     -0.36578556	     -0.57061835	      0.89004941	     -0.00049559	    -21.01725457	      6.15449540	     -3.15246139	    -26.26085261	      8.60753848	      0.75557958	     59.31018964	     18.86695152	     -2.82018901	     -1.51125570	    -14.18097027	      7.73831706	     -3.43628942	     34.27411573	    -15.32783738	      3.20446918	     -0.42173636
      1.17500000	      4.73087850	     -5.08839371	     -0.27821769	     -0.56300720	      0.88927654	     -0.00139924	    -19.84862310	      5.61758749	     -3.27510995	    -28.54274457	      7.61924270	      0.66469917	     59.84934533	     19.35969648	     -2.21965956	     -1.12846986	    -15.45785991	      7.49780404	     -4.05406042	     34.22514190	    -15.01596265	      2.76190601	     -0.69408603
      1.18000000	      4.43666027	     -4.64496345	     -0.14805056	     -0.55545884	      0.88849043	     -0.00233427	    -18.60512133	      5.08002048	     -3.42968940	    -30.89236450	      6.51206386	      0.29606123	     60.58625282	     19.86821458	     -1.58977700	     -0.74475695	    -16.74309204	      7.36540752	     -4.55920722	     34.16271831	    -14.69444819	      2.30251432	     -1.02995584
      1.18500000	      4.17126576	     -4.17994873	     -0.04385157	     -0.54793064	      0.88780822	     -0.00319810	    -17.33932421	      4.51217046	     -3.55259587	    -33.28868535	      5.26379197	     -0.17005247	     61.42961043	     20.29490902	     -0.95516874	     -0.44470016	    -17.95632456	      7.31676708	     -4.99518607	     34.04428522	    -14.40886045	      1.80551056	     -1.33583061
